<?xml version="1.0" encoding="UTF-8"?>
<!DOCTYPE svg  PUBLIC '-//W3C//DTD SVG 1.1//EN'  'http://www.w3.org/Graphics/SVG/1.1/DTD/svg11.dtd'>
<svg width="2349pt" height="653pt" version="1.1" viewBox="0 0 2349 653" xmlns="http://www.w3.org/2000/svg">
<path d="m1612 2.44c6.88-1.49 13.98-1.22 20.98-1.79 188.71 0.04 377.41 0 566.12 0.02 12.99 0.09 26.01-0.41 38.96 0.98 3.77 0.82 7.58 1.47 11.45 1.84 12.33 3.47 24.77 7.39 35.78 14.18 34.07 19.29 57.93 55.36 62.49 94.23 1.06 8.35 0.39 16.77 0.61 25.16-0.03 123-0.01 246-0.01 369-0.1 11.8 0.34 23.61-0.81 35.37-1.4 4.05-1.64 8.51-2.93 12.65-3.72 12.94-8.94 25.58-16.47 36.82-12.99 19.89-31.73 35.86-53.25 45.75-4.76 2.27-9.85 3.71-14.64 5.85-6.77 1.3-13.29 3.76-20.18 4.29-8.93 1.66-18.09 1.05-27.12 1.22-192.29-0.03-384.57-0.01-576.85-0.01-12.69 0.39-25.31-1.24-37.56-4.43-3.95-1.58-8.02-2.84-12.08-4.06-17.3-7.3-33.49-17.76-46.15-31.73-15.15-15.92-25.57-36.05-30.76-57.34-0.67-3.34-0.94-6.76-2.02-10.01-1.31-10.77-1.27-21.6-1.15-32.43 0.01-125.65-0.01-251.3 0.01-376.96-0.46-18.89 3.11-37.91 10.82-55.19 8.01-18.03 20.44-34.3 35.85-46.76 16.83-13.91 37.48-22.85 58.91-26.65m40.1 181.44c-0.11 18.74-0.08 37.49-0.04 56.23 20.23 0.24 40.47 0 60.71 0.15 0.21 85.58-0.16 171.17 0.18 256.74 40.46-0.01 80.91-0.01 121.37 0 0.19-85.57-0.01-171.14 0.1-256.71 20.22-0.29 40.46 0.22 60.68-0.22 0.3-18.72 0.12-37.46 0.09-56.19-81.03-0.16-162.07-0.15-243.09 0m276.65-0.01c0.03 0.49 0.11 1.48 0.15 1.97 7.31 29.51 14.31 59.15 21.62 88.68 4.27 18.49 9 36.87 13.37 55.31 2.17 7.51 3.11 15.35 5.66 22.74 1.38 8.33 4.08 16.34 5.73 24.61 9.7 39.89 19.49 79.77 28.95 119.69 40.94 0.25 81.89 0.15 122.83 0.06 5.09-21.12 10.13-42.25 15.47-63.3 1.46-8.83 4.41-17.32 5.98-26.12 1.02-2.1 1.43-4.4 1.8-6.69 17.56-72.22 35-144.51 52.56-216.71-1.27-0.26-2.53-0.38-3.77-0.34-28.68 0.01-57.35 0.04-86.03-0.01-10.58 0.27-21.2-0.42-31.74 0.35 0 43.95 0.23 87.92-0.12 131.87-10.41 0.04-20.81 0.05-31.2 0 0.06-44.01-0.01-88.03 0.04-132.04-10.32-0.39-20.65-0.02-30.96-0.16-30.12 0.07-60.23-0.11-90.34 0.09z" fill="#554689"/>
<g fill="#eb5197">
<path d="m0.86 28.07c80.78-0.11 161.57-0.12 242.35 0 0.26 33.64 0.04 67.29 0.11 100.94-0.04 54.25 0.07 108.5-0.05 162.75 20.64 0.52 41.32 0.12 61.98 0.22 0.21-6.34 0.1-12.69 0.12-19.03-0.04-81.58 0.04-163.16-0.02-244.74 8.88-0.52 17.78-0.03 26.67-0.25 71.97 0.13 143.95-0.04 215.92 0.07 0.14 100.31 0.02 200.62 0.07 300.94-0.08 108.01 0.11 216.02-0.09 324.03h-242.81c0.56-16.33 0.17-32.71 0.23-49.06 0.08-58.3-0.03-116.6 0.05-174.91-0.19-13.36 0.23-26.74-0.17-40.1-16.38-0.58-32.79-0.04-49.18-0.24-4.26 0.06-8.54-0.22-12.77 0.34 0.1 58.66 0.02 117.32 0.06 175.98-0.19 29.33 0.26 58.67-0.22 87.99h-242.17c-0.57-27.31-0.1-54.66-0.25-81.98 0-175.03-0.01-350.06 0-525.09 0.01-5.96-0.24-11.92 0.17-17.86z"/>
<path d="m613.02 27.99c64.65 0.03 129.3 0 193.95 0.01 16.24 0.16 32.5-0.34 48.73 0.24-0.15 169.89-0.04 339.78-0.07 509.67 0.07 38.37-0.18 76.73 0.15 115.09h-242.72c-0.12-208.34-0.06-416.68-0.04-625.01z"/>
<path d="m921.93 28.03c137.67-0.08 275.35 0 413.02-0.03 23.9 0.19 47.83-0.38 71.72 0.27-0.09 37.48-0.02 74.96-0.03 112.44-28.53-0.05-57.06 0-85.59-0.02-11.93 0.21-23.9-0.41-35.81 0.31 0.18 145.68 0.01 291.36 0.09 437.04-0.14 24.99 0.28 49.99-0.23 74.96h-242.08c-0.05-170.7 0-341.4-0.02-512.11-1.66-0.11-3.32-0.22-4.95-0.23-38.63 0.16-77.26-0.13-115.88 0.11-0.39-37.57 0-75.16-0.24-112.74z"/>
</g>
<g fill="#f9dd00">
<path d="m1652.1 183.88c81.02-0.15 162.06-0.16 243.09 0 0.03 18.73 0.21 37.47-0.09 56.19-20.22 0.44-40.46-0.07-60.68 0.22-0.11 85.57 0.09 171.14-0.1 256.71-40.46-0.01-80.91-0.01-121.37 0-0.34-85.57 0.03-171.16-0.18-256.74-20.24-0.15-40.48 0.09-60.71-0.15-0.04-18.74-0.07-37.49 0.04-56.23z"/>
<path d="m1928.7 183.87c30.11-0.2 60.22-0.02 90.34-0.09 10.31 0.14 20.64-0.23 30.96 0.16-0.05 44.01 0.02 88.03-0.04 132.04 10.39 0.05 20.79 0.04 31.2 0 0.35-43.95 0.12-87.92 0.12-131.87 10.54-0.77 21.16-0.08 31.74-0.35 28.68 0.05 57.35 0.02 86.03 0.01 1.24-0.04 2.5 0.08 3.77 0.34-17.56 72.2-35 144.49-52.56 216.71-0.37 2.29-0.78 4.59-1.8 6.69-1.57 8.8-4.52 17.29-5.98 26.12-5.34 21.05-10.38 42.18-15.47 63.3-40.94 0.09-81.89 0.19-122.83-0.06-9.46-39.92-19.25-79.8-28.95-119.69-1.65-8.27-4.35-16.28-5.73-24.61-2.55-7.39-3.49-15.23-5.66-22.74-4.37-18.44-9.1-36.82-13.37-55.31-7.31-29.53-14.31-59.17-21.62-88.68-0.04-0.49-0.12-1.48-0.15-1.97z"/>
</g>
</svg>
